<svg width="1363" height="163" viewBox="0 0 1363 163" fill="none" xmlns="http://www.w3.org/2000/svg">
<path d="M0 15C0 6.71573 6.71573 0 15 0H37V163H15C6.71573 163 0 156.284 0 148V15Z" fill="#34BB78"/>
<rect width="1097" height="163" transform="translate(37)" fill="#F0F0F0"/>
<path d="M101.906 53.9219L94.3945 51.2383V48.0859L104.602 52.375V54.6367L101.906 53.9219ZM94.3945 56.1719L101.918 53.4297L104.602 52.7852V55.0352L94.3945 59.3242V56.1719ZM126.422 52.082V58.8438C126.156 59.1641 125.746 59.5117 125.191 59.8867C124.637 60.2539 123.922 60.5703 123.047 60.8359C122.172 61.1016 121.113 61.2344 119.871 61.2344C118.77 61.2344 117.766 61.0547 116.859 60.6953C115.953 60.3281 115.172 59.793 114.516 59.0898C113.867 58.3867 113.367 57.5273 113.016 56.5117C112.664 55.4883 112.488 54.3203 112.488 53.0078V51.9414C112.488 50.6289 112.656 49.4609 112.992 48.4375C113.336 47.4141 113.824 46.5508 114.457 45.8477C115.09 45.1445 115.844 44.6094 116.719 44.2422C117.594 43.875 118.566 43.6914 119.637 43.6914C121.121 43.6914 122.34 43.9336 123.293 44.418C124.246 44.8945 124.973 45.5586 125.473 46.4102C125.98 47.2539 126.293 48.2227 126.41 49.3164H123C122.914 48.7383 122.75 48.2344 122.508 47.8047C122.266 47.375 121.918 47.0391 121.465 46.7969C121.02 46.5547 120.441 46.4336 119.73 46.4336C119.145 46.4336 118.621 46.5547 118.16 46.7969C117.707 47.0312 117.324 47.3789 117.012 47.8398C116.699 48.3008 116.461 48.8711 116.297 49.5508C116.133 50.2305 116.051 51.0195 116.051 51.918V53.0078C116.051 53.8984 116.137 54.6875 116.309 55.375C116.48 56.0547 116.734 56.6289 117.07 57.0977C117.414 57.5586 117.836 57.9062 118.336 58.1406C118.836 58.375 119.418 58.4922 120.082 58.4922C120.637 58.4922 121.098 58.4453 121.465 58.3516C121.84 58.2578 122.141 58.1445 122.367 58.0117C122.602 57.8711 122.781 57.7383 122.906 57.6133V54.5898H119.695V52.082H126.422ZM132.422 51.0859V61H129.047V48.3203H132.223L132.422 51.0859ZM136.242 48.2383L136.184 51.3672C136.02 51.3438 135.82 51.3242 135.586 51.3086C135.359 51.2852 135.152 51.2734 134.965 51.2734C134.488 51.2734 134.074 51.3359 133.723 51.4609C133.379 51.5781 133.09 51.7539 132.855 51.9883C132.629 52.2227 132.457 52.5078 132.34 52.8438C132.23 53.1797 132.168 53.5625 132.152 53.9922L131.473 53.7812C131.473 52.9609 131.555 52.207 131.719 51.5195C131.883 50.8242 132.121 50.2188 132.434 49.7031C132.754 49.1875 133.145 48.7891 133.605 48.5078C134.066 48.2266 134.594 48.0859 135.188 48.0859C135.375 48.0859 135.566 48.1016 135.762 48.1328C135.957 48.1562 136.117 48.1914 136.242 48.2383ZM143.438 61.2344C142.453 61.2344 141.57 61.0781 140.789 60.7656C140.008 60.4453 139.344 60.0039 138.797 59.4414C138.258 58.8789 137.844 58.2266 137.555 57.4844C137.266 56.7344 137.121 55.9375 137.121 55.0938V54.625C137.121 53.6641 137.258 52.7852 137.531 51.9883C137.805 51.1914 138.195 50.5 138.703 49.9141C139.219 49.3281 139.844 48.8789 140.578 48.5664C141.312 48.2461 142.141 48.0859 143.062 48.0859C143.961 48.0859 144.758 48.2344 145.453 48.5312C146.148 48.8281 146.73 49.25 147.199 49.7969C147.676 50.3438 148.035 51 148.277 51.7656C148.52 52.5234 148.641 53.3672 148.641 54.2969V55.7031H138.562V53.4531H145.324V53.1953C145.324 52.7266 145.238 52.3086 145.066 51.9414C144.902 51.5664 144.652 51.2695 144.316 51.0508C143.98 50.832 143.551 50.7227 143.027 50.7227C142.582 50.7227 142.199 50.8203 141.879 51.0156C141.559 51.2109 141.297 51.4844 141.094 51.8359C140.898 52.1875 140.75 52.6016 140.648 53.0781C140.555 53.5469 140.508 54.0625 140.508 54.625V55.0938C140.508 55.6016 140.578 56.0703 140.719 56.5C140.867 56.9297 141.074 57.3008 141.34 57.6133C141.613 57.9258 141.941 58.168 142.324 58.3398C142.715 58.5117 143.156 58.5977 143.648 58.5977C144.258 58.5977 144.824 58.4805 145.348 58.2461C145.879 58.0039 146.336 57.6406 146.719 57.1562L148.359 58.9375C148.094 59.3203 147.73 59.6875 147.27 60.0391C146.816 60.3906 146.27 60.6797 145.629 60.9062C144.988 61.125 144.258 61.2344 143.438 61.2344ZM156.398 61.2344C155.414 61.2344 154.531 61.0781 153.75 60.7656C152.969 60.4453 152.305 60.0039 151.758 59.4414C151.219 58.8789 150.805 58.2266 150.516 57.4844C150.227 56.7344 150.082 55.9375 150.082 55.0938V54.625C150.082 53.6641 150.219 52.7852 150.492 51.9883C150.766 51.1914 151.156 50.5 151.664 49.9141C152.18 49.3281 152.805 48.8789 153.539 48.5664C154.273 48.2461 155.102 48.0859 156.023 48.0859C156.922 48.0859 157.719 48.2344 158.414 48.5312C159.109 48.8281 159.691 49.25 160.16 49.7969C160.637 50.3438 160.996 51 161.238 51.7656C161.48 52.5234 161.602 53.3672 161.602 54.2969V55.7031H151.523V53.4531H158.285V53.1953C158.285 52.7266 158.199 52.3086 158.027 51.9414C157.863 51.5664 157.613 51.2695 157.277 51.0508C156.941 50.832 156.512 50.7227 155.988 50.7227C155.543 50.7227 155.16 50.8203 154.84 51.0156C154.52 51.2109 154.258 51.4844 154.055 51.8359C153.859 52.1875 153.711 52.6016 153.609 53.0781C153.516 53.5469 153.469 54.0625 153.469 54.625V55.0938C153.469 55.6016 153.539 56.0703 153.68 56.5C153.828 56.9297 154.035 57.3008 154.301 57.6133C154.574 57.9258 154.902 58.168 155.285 58.3398C155.676 58.5117 156.117 58.5977 156.609 58.5977C157.219 58.5977 157.785 58.4805 158.309 58.2461C158.84 58.0039 159.297 57.6406 159.68 57.1562L161.32 58.9375C161.055 59.3203 160.691 59.6875 160.23 60.0391C159.777 60.3906 159.23 60.6797 158.59 60.9062C157.949 61.125 157.219 61.2344 156.398 61.2344ZM166.828 51.0273V61H163.453V48.3203H166.617L166.828 51.0273ZM166.336 54.2148H165.422C165.422 53.2773 165.543 52.4336 165.785 51.6836C166.027 50.9258 166.367 50.2812 166.805 49.75C167.242 49.2109 167.762 48.8008 168.363 48.5195C168.973 48.2305 169.652 48.0859 170.402 48.0859C170.996 48.0859 171.539 48.1719 172.031 48.3438C172.523 48.5156 172.945 48.7891 173.297 49.1641C173.656 49.5391 173.93 50.0352 174.117 50.6523C174.312 51.2695 174.41 52.0234 174.41 52.9141V61H171.012V52.9023C171.012 52.3398 170.934 51.9023 170.777 51.5898C170.621 51.2773 170.391 51.0586 170.086 50.9336C169.789 50.8008 169.422 50.7344 168.984 50.7344C168.531 50.7344 168.137 50.8242 167.801 51.0039C167.473 51.1836 167.199 51.4336 166.98 51.7539C166.77 52.0664 166.609 52.4336 166.5 52.8555C166.391 53.2773 166.336 53.7305 166.336 54.2148ZM184.77 43.9375H187.746L192.129 56.4648L196.512 43.9375H199.488L193.324 61H190.934L184.77 43.9375ZM183.164 43.9375H186.129L186.668 56.1484V61H183.164V43.9375ZM198.129 43.9375H201.105V61H197.59V56.1484L198.129 43.9375ZM210.82 58.1406V52.4922C210.82 52.0859 210.754 51.7383 210.621 51.4492C210.488 51.1523 210.281 50.9219 210 50.7578C209.727 50.5938 209.371 50.5117 208.934 50.5117C208.559 50.5117 208.234 50.5781 207.961 50.7109C207.688 50.8359 207.477 51.0195 207.328 51.2617C207.18 51.4961 207.105 51.7734 207.105 52.0938H203.73C203.73 51.5547 203.855 51.043 204.105 50.5586C204.355 50.0742 204.719 49.6484 205.195 49.2812C205.672 48.9062 206.238 48.6133 206.895 48.4023C207.559 48.1914 208.301 48.0859 209.121 48.0859C210.105 48.0859 210.98 48.25 211.746 48.5781C212.512 48.9062 213.113 49.3984 213.551 50.0547C213.996 50.7109 214.219 51.5312 214.219 52.5156V57.9414C214.219 58.6367 214.262 59.207 214.348 59.6523C214.434 60.0898 214.559 60.4727 214.723 60.8008V61H211.312C211.148 60.6562 211.023 60.2266 210.938 59.7109C210.859 59.1875 210.82 58.6641 210.82 58.1406ZM211.266 53.2773L211.289 55.1875H209.402C208.957 55.1875 208.57 55.2383 208.242 55.3398C207.914 55.4414 207.645 55.5859 207.434 55.7734C207.223 55.9531 207.066 56.1641 206.965 56.4062C206.871 56.6484 206.824 56.9141 206.824 57.2031C206.824 57.4922 206.891 57.7539 207.023 57.9883C207.156 58.2148 207.348 58.3945 207.598 58.5273C207.848 58.6523 208.141 58.7148 208.477 58.7148C208.984 58.7148 209.426 58.6133 209.801 58.4102C210.176 58.207 210.465 57.957 210.668 57.6602C210.879 57.3633 210.988 57.082 210.996 56.8164L211.887 58.2461C211.762 58.5664 211.59 58.8984 211.371 59.2422C211.16 59.5859 210.891 59.9102 210.562 60.2148C210.234 60.5117 209.84 60.7578 209.379 60.9531C208.918 61.1406 208.371 61.2344 207.738 61.2344C206.934 61.2344 206.203 61.0742 205.547 60.7539C204.898 60.4258 204.383 59.9766 204 59.4062C203.625 58.8281 203.438 58.1719 203.438 57.4375C203.438 56.7734 203.562 56.1836 203.812 55.668C204.062 55.1523 204.43 54.7188 204.914 54.3672C205.406 54.0078 206.02 53.7383 206.754 53.5586C207.488 53.3711 208.34 53.2773 209.309 53.2773H211.266ZM220.195 51.0859V61H216.82V48.3203H219.996L220.195 51.0859ZM224.016 48.2383L223.957 51.3672C223.793 51.3438 223.594 51.3242 223.359 51.3086C223.133 51.2852 222.926 51.2734 222.738 51.2734C222.262 51.2734 221.848 51.3359 221.496 51.4609C221.152 51.5781 220.863 51.7539 220.629 51.9883C220.402 52.2227 220.23 52.5078 220.113 52.8438C220.004 53.1797 219.941 53.5625 219.926 53.9922L219.246 53.7812C219.246 52.9609 219.328 52.207 219.492 51.5195C219.656 50.8242 219.895 50.2188 220.207 49.7031C220.527 49.1875 220.918 48.7891 221.379 48.5078C221.84 48.2266 222.367 48.0859 222.961 48.0859C223.148 48.0859 223.34 48.1016 223.535 48.1328C223.73 48.1562 223.891 48.1914 224.016 48.2383ZM228.984 42.9883V61H225.609V42.9883H228.984ZM236.977 48.3203L231.469 54.6016L228.516 57.5898L227.285 55.1523L229.629 52.1758L232.922 48.3203H236.977ZM233.473 61L229.723 55.1406L232.055 53.1016L237.363 61H233.473ZM244.031 61.2344C243.047 61.2344 242.164 61.0781 241.383 60.7656C240.602 60.4453 239.938 60.0039 239.391 59.4414C238.852 58.8789 238.438 58.2266 238.148 57.4844C237.859 56.7344 237.715 55.9375 237.715 55.0938V54.625C237.715 53.6641 237.852 52.7852 238.125 51.9883C238.398 51.1914 238.789 50.5 239.297 49.9141C239.812 49.3281 240.438 48.8789 241.172 48.5664C241.906 48.2461 242.734 48.0859 243.656 48.0859C244.555 48.0859 245.352 48.2344 246.047 48.5312C246.742 48.8281 247.324 49.25 247.793 49.7969C248.27 50.3438 248.629 51 248.871 51.7656C249.113 52.5234 249.234 53.3672 249.234 54.2969V55.7031H239.156V53.4531H245.918V53.1953C245.918 52.7266 245.832 52.3086 245.66 51.9414C245.496 51.5664 245.246 51.2695 244.91 51.0508C244.574 50.832 244.145 50.7227 243.621 50.7227C243.176 50.7227 242.793 50.8203 242.473 51.0156C242.152 51.2109 241.891 51.4844 241.688 51.8359C241.492 52.1875 241.344 52.6016 241.242 53.0781C241.148 53.5469 241.102 54.0625 241.102 54.625V55.0938C241.102 55.6016 241.172 56.0703 241.312 56.5C241.461 56.9297 241.668 57.3008 241.934 57.6133C242.207 57.9258 242.535 58.168 242.918 58.3398C243.309 58.5117 243.75 58.5977 244.242 58.5977C244.852 58.5977 245.418 58.4805 245.941 58.2461C246.473 58.0039 246.93 57.6406 247.312 57.1562L248.953 58.9375C248.688 59.3203 248.324 59.6875 247.863 60.0391C247.41 60.3906 246.863 60.6797 246.223 60.9062C245.582 61.125 244.852 61.2344 244.031 61.2344ZM257.367 48.3203V50.7109H249.984V48.3203H257.367ZM251.812 45.1914H255.188V57.1797C255.188 57.5469 255.234 57.8281 255.328 58.0234C255.43 58.2188 255.578 58.3555 255.773 58.4336C255.969 58.5039 256.215 58.5391 256.512 58.5391C256.723 58.5391 256.91 58.5312 257.074 58.5156C257.246 58.4922 257.391 58.4688 257.508 58.4453L257.52 60.9297C257.23 61.0234 256.918 61.0977 256.582 61.1523C256.246 61.207 255.875 61.2344 255.469 61.2344C254.727 61.2344 254.078 61.1133 253.523 60.8711C252.977 60.6211 252.555 60.2227 252.258 59.6758C251.961 59.1289 251.812 58.4102 251.812 57.5195V45.1914Z" fill="#888888"/>
<path d="M118.594 98.4219V104.75H101.086V98.4219H118.594ZM103.828 84.875V119H95.6016V84.875H103.828ZM124.125 84.875V119H115.922V84.875H124.125ZM127.992 106.578V106.086C127.992 104.227 128.258 102.516 128.789 100.953C129.32 99.375 130.102 98.0078 131.133 96.8516C132.164 95.6953 133.438 94.7969 134.953 94.1562C136.469 93.5 138.219 93.1719 140.203 93.1719C142.203 93.1719 143.961 93.5 145.477 94.1562C147.008 94.7969 148.289 95.6953 149.32 96.8516C150.352 98.0078 151.133 99.375 151.664 100.953C152.195 102.516 152.461 104.227 152.461 106.086V106.578C152.461 108.422 152.195 110.133 151.664 111.711C151.133 113.273 150.352 114.641 149.32 115.812C148.289 116.969 147.016 117.867 145.5 118.508C143.984 119.148 142.234 119.469 140.25 119.469C138.266 119.469 136.508 119.148 134.977 118.508C133.445 117.867 132.164 116.969 131.133 115.812C130.102 114.641 129.32 113.273 128.789 111.711C128.258 110.133 127.992 108.422 127.992 106.578ZM135.891 106.086V106.578C135.891 107.531 135.961 108.422 136.102 109.25C136.242 110.078 136.477 110.805 136.805 111.43C137.133 112.039 137.578 112.516 138.141 112.859C138.703 113.203 139.406 113.375 140.25 113.375C141.078 113.375 141.766 113.203 142.312 112.859C142.875 112.516 143.32 112.039 143.648 111.43C143.977 110.805 144.211 110.078 144.352 109.25C144.492 108.422 144.562 107.531 144.562 106.578V106.086C144.562 105.164 144.492 104.297 144.352 103.484C144.211 102.656 143.977 101.93 143.648 101.305C143.32 100.664 142.875 100.164 142.312 99.8047C141.75 99.4453 141.047 99.2656 140.203 99.2656C139.375 99.2656 138.68 99.4453 138.117 99.8047C137.57 100.164 137.133 100.664 136.805 101.305C136.477 101.93 136.242 102.656 136.102 103.484C135.961 104.297 135.891 105.164 135.891 106.086ZM163.688 111.453L168.375 93.6406H173.32L171.562 102.57L166.922 119H162.961L163.688 111.453ZM161.836 93.6406L164.742 111.312L165.07 119H160.266L154.266 93.6406H161.836ZM177.492 110.938L180.422 93.6406H187.992L182.039 119H177.234L177.492 110.938ZM173.883 93.6406L178.617 111.406L179.344 119H175.336L170.789 102.617L169.102 93.6406H173.883ZM218.297 84.875V119H210.07V84.875H218.297ZM228.562 84.875V91.2266H200.039V84.875H228.562ZM225.773 106.578V106.086C225.773 104.227 226.039 102.516 226.57 100.953C227.102 99.375 227.883 98.0078 228.914 96.8516C229.945 95.6953 231.219 94.7969 232.734 94.1562C234.25 93.5 236 93.1719 237.984 93.1719C239.984 93.1719 241.742 93.5 243.258 94.1562C244.789 94.7969 246.07 95.6953 247.102 96.8516C248.133 98.0078 248.914 99.375 249.445 100.953C249.977 102.516 250.242 104.227 250.242 106.086V106.578C250.242 108.422 249.977 110.133 249.445 111.711C248.914 113.273 248.133 114.641 247.102 115.812C246.07 116.969 244.797 117.867 243.281 118.508C241.766 119.148 240.016 119.469 238.031 119.469C236.047 119.469 234.289 119.148 232.758 118.508C231.227 117.867 229.945 116.969 228.914 115.812C227.883 114.641 227.102 113.273 226.57 111.711C226.039 110.133 225.773 108.422 225.773 106.578ZM233.672 106.086V106.578C233.672 107.531 233.742 108.422 233.883 109.25C234.023 110.078 234.258 110.805 234.586 111.43C234.914 112.039 235.359 112.516 235.922 112.859C236.484 113.203 237.188 113.375 238.031 113.375C238.859 113.375 239.547 113.203 240.094 112.859C240.656 112.516 241.102 112.039 241.43 111.43C241.758 110.805 241.992 110.078 242.133 109.25C242.273 108.422 242.344 107.531 242.344 106.578V106.086C242.344 105.164 242.273 104.297 242.133 103.484C241.992 102.656 241.758 101.93 241.43 101.305C241.102 100.664 240.656 100.164 240.094 99.8047C239.531 99.4453 238.828 99.2656 237.984 99.2656C237.156 99.2656 236.461 99.4453 235.898 99.8047C235.352 100.164 234.914 100.664 234.586 101.305C234.258 101.93 234.023 102.656 233.883 103.484C233.742 104.297 233.672 105.164 233.672 106.086ZM266.086 84.875H279.516C282.141 84.875 284.422 85.2656 286.359 86.0469C288.297 86.8281 289.789 87.9844 290.836 89.5156C291.898 91.0469 292.43 92.9375 292.43 95.1875C292.43 97.1406 292.125 98.7734 291.516 100.086C290.906 101.398 290.055 102.484 288.961 103.344C287.883 104.188 286.625 104.883 285.188 105.43L282.492 106.953H271.219L271.172 100.602H279.516C280.562 100.602 281.43 100.414 282.117 100.039C282.805 99.6641 283.32 99.1328 283.664 98.4453C284.023 97.7422 284.203 96.9062 284.203 95.9375C284.203 94.9531 284.023 94.1094 283.664 93.4062C283.305 92.7031 282.773 92.1641 282.07 91.7891C281.383 91.4141 280.531 91.2266 279.516 91.2266H274.312V119H266.086V84.875ZM284.766 119L277.219 103.906L285.938 103.859L293.578 118.648V119H284.766ZM311.836 112.836V93.6406H319.758V119H312.352L311.836 112.836ZM312.586 107.68L314.648 107.633C314.648 109.336 314.445 110.914 314.039 112.367C313.633 113.805 313.031 115.055 312.234 116.117C311.453 117.18 310.484 118.008 309.328 118.602C308.188 119.18 306.867 119.469 305.367 119.469C304.117 119.469 302.969 119.297 301.922 118.953C300.891 118.594 300 118.039 299.25 117.289C298.5 116.523 297.914 115.547 297.492 114.359C297.086 113.156 296.883 111.719 296.883 110.047V93.6406H304.781V110.094C304.781 110.656 304.852 111.141 304.992 111.547C305.133 111.953 305.336 112.297 305.602 112.578C305.867 112.844 306.195 113.047 306.586 113.188C306.992 113.312 307.453 113.375 307.969 113.375C309.156 113.375 310.086 113.125 310.758 112.625C311.43 112.125 311.898 111.445 312.164 110.586C312.445 109.727 312.586 108.758 312.586 107.68ZM331.875 99.0547V119H323.977V93.6406H331.383L331.875 99.0547ZM330.938 105.453L329.086 105.5C329.086 103.562 329.32 101.836 329.789 100.32C330.258 98.7891 330.922 97.4922 331.781 96.4297C332.641 95.3672 333.664 94.5625 334.852 94.0156C336.055 93.4531 337.391 93.1719 338.859 93.1719C340.031 93.1719 341.102 93.3438 342.07 93.6875C343.055 94.0312 343.898 94.5859 344.602 95.3516C345.32 96.1172 345.867 97.1328 346.242 98.3984C346.633 99.6484 346.828 101.195 346.828 103.039V119H338.883V103.016C338.883 102 338.742 101.227 338.461 100.695C338.18 100.148 337.773 99.7734 337.242 99.5703C336.711 99.3672 336.062 99.2656 335.297 99.2656C334.484 99.2656 333.797 99.4219 333.234 99.7344C332.672 100.047 332.219 100.484 331.875 101.047C331.547 101.594 331.305 102.242 331.148 102.992C331.008 103.742 330.938 104.562 330.938 105.453ZM363.773 108.195H357.047C357.047 106.82 357.141 105.609 357.328 104.562C357.531 103.5 357.875 102.547 358.359 101.703C358.844 100.859 359.5 100.078 360.328 99.3594C361.062 98.75 361.695 98.1641 362.227 97.6016C362.758 97.0391 363.164 96.4688 363.445 95.8906C363.727 95.3125 363.867 94.6953 363.867 94.0391C363.867 93.2266 363.75 92.5625 363.516 92.0469C363.297 91.5312 362.961 91.1484 362.508 90.8984C362.07 90.6328 361.516 90.5 360.844 90.5C360.297 90.5 359.781 90.6328 359.297 90.8984C358.828 91.1641 358.445 91.5781 358.148 92.1406C357.852 92.6875 357.688 93.4141 357.656 94.3203H349.711C349.758 91.9922 350.273 90.1016 351.258 88.6484C352.258 87.1797 353.586 86.1094 355.242 85.4375C356.914 84.75 358.781 84.4062 360.844 84.4062C363.125 84.4062 365.086 84.7578 366.727 85.4609C368.367 86.1641 369.625 87.2109 370.5 88.6016C371.375 89.9766 371.812 91.6719 371.812 93.6875C371.812 95.0312 371.555 96.2031 371.039 97.2031C370.539 98.1875 369.859 99.1094 369 99.9688C368.156 100.812 367.211 101.719 366.164 102.688C365.258 103.484 364.641 104.297 364.312 105.125C363.984 105.938 363.805 106.961 363.773 108.195ZM356.086 115.32C356.086 114.195 356.492 113.258 357.305 112.508C358.117 111.742 359.172 111.359 360.469 111.359C361.766 111.359 362.82 111.742 363.633 112.508C364.445 113.258 364.852 114.195 364.852 115.32C364.852 116.445 364.445 117.391 363.633 118.156C362.82 118.906 361.766 119.281 360.469 119.281C359.172 119.281 358.117 118.906 357.305 118.156C356.492 117.391 356.086 116.445 356.086 115.32Z" fill="black"/>
<path d="M1134 0H1348C1356.28 0 1363 6.71573 1363 15V148C1363 156.284 1356.28 163 1348 163H1134V0Z" fill="#34BB78"/>
<path d="M1260.62 78.8078C1263.81 78.8078 1266.93 79.7552 1269.59 81.5302C1272.25 83.3052 1274.32 85.8281 1275.54 88.7798C1276.76 91.7315 1277.08 94.9795 1276.46 98.1131C1275.84 101.247 1274.3 104.125 1272.04 106.384C1269.78 108.643 1266.9 110.182 1263.77 110.805C1260.63 111.428 1257.39 111.108 1254.43 109.886C1251.48 108.663 1248.96 106.593 1247.18 103.936C1245.41 101.28 1244.46 98.1565 1244.46 94.9616C1244.46 90.6774 1246.16 86.5686 1249.19 83.5392C1252.22 80.5097 1256.33 78.8078 1260.62 78.8078V78.8078ZM1260.62 73.4232C1256.36 73.4232 1252.19 74.6864 1248.65 77.0531C1245.11 79.4198 1242.35 82.7836 1240.72 86.7192C1239.09 90.6549 1238.66 94.9855 1239.49 99.1636C1240.32 103.342 1242.37 107.179 1245.39 110.192C1248.4 113.204 1252.24 115.255 1256.41 116.086C1260.59 116.917 1264.92 116.491 1268.86 114.861C1272.79 113.23 1276.16 110.47 1278.52 106.928C1280.89 103.386 1282.15 99.2215 1282.15 94.9616C1282.15 89.2493 1279.88 83.7709 1275.85 79.7317C1271.81 75.6924 1266.33 73.4232 1260.62 73.4232Z" fill="white"/>
<path d="M1274.08 46.4999H1220.23C1218.8 46.4999 1217.43 47.0672 1216.42 48.0771C1215.41 49.0869 1214.85 50.4565 1214.85 51.8845V105.731C1214.85 107.159 1215.41 108.528 1216.42 109.538C1217.43 110.548 1218.8 111.115 1220.23 111.115H1231V105.731H1220.23V68.0383H1279.46V51.8845C1279.46 50.4565 1278.89 49.0869 1277.88 48.0771C1276.87 47.0672 1275.5 46.4999 1274.08 46.4999V46.4999ZM1220.23 62.6537V51.8845H1274.08V62.6537H1220.23Z" fill="white"/>
<path d="M1255.23 86.8848V103.039L1268.69 94.9617L1255.23 86.8848Z" fill="white"/>
</svg>
