<svg width="1363" height="163" viewBox="0 0 1363 163" fill="none" xmlns="http://www.w3.org/2000/svg">
<path d="M0 15C0 6.71573 6.71573 0 15 0H37V163H15C6.71573 163 0 156.284 0 148V15Z" fill="#34BB78"/>
<rect width="1097" height="163" transform="translate(37)" fill="#F0F0F0"/>
<path d="M101.906 53.9219L94.3945 51.2383V48.0859L104.602 52.375V54.6367L101.906 53.9219ZM94.3945 56.1719L101.918 53.4297L104.602 52.7852V55.0352L94.3945 59.3242V56.1719ZM126.422 52.082V58.8438C126.156 59.1641 125.746 59.5117 125.191 59.8867C124.637 60.2539 123.922 60.5703 123.047 60.8359C122.172 61.1016 121.113 61.2344 119.871 61.2344C118.77 61.2344 117.766 61.0547 116.859 60.6953C115.953 60.3281 115.172 59.793 114.516 59.0898C113.867 58.3867 113.367 57.5273 113.016 56.5117C112.664 55.4883 112.488 54.3203 112.488 53.0078V51.9414C112.488 50.6289 112.656 49.4609 112.992 48.4375C113.336 47.4141 113.824 46.5508 114.457 45.8477C115.09 45.1445 115.844 44.6094 116.719 44.2422C117.594 43.875 118.566 43.6914 119.637 43.6914C121.121 43.6914 122.34 43.9336 123.293 44.418C124.246 44.8945 124.973 45.5586 125.473 46.4102C125.98 47.2539 126.293 48.2227 126.41 49.3164H123C122.914 48.7383 122.75 48.2344 122.508 47.8047C122.266 47.375 121.918 47.0391 121.465 46.7969C121.02 46.5547 120.441 46.4336 119.73 46.4336C119.145 46.4336 118.621 46.5547 118.16 46.7969C117.707 47.0312 117.324 47.3789 117.012 47.8398C116.699 48.3008 116.461 48.8711 116.297 49.5508C116.133 50.2305 116.051 51.0195 116.051 51.918V53.0078C116.051 53.8984 116.137 54.6875 116.309 55.375C116.48 56.0547 116.734 56.6289 117.07 57.0977C117.414 57.5586 117.836 57.9062 118.336 58.1406C118.836 58.375 119.418 58.4922 120.082 58.4922C120.637 58.4922 121.098 58.4453 121.465 58.3516C121.84 58.2578 122.141 58.1445 122.367 58.0117C122.602 57.8711 122.781 57.7383 122.906 57.6133V54.5898H119.695V52.082H126.422ZM132.422 51.0859V61H129.047V48.3203H132.223L132.422 51.0859ZM136.242 48.2383L136.184 51.3672C136.02 51.3438 135.82 51.3242 135.586 51.3086C135.359 51.2852 135.152 51.2734 134.965 51.2734C134.488 51.2734 134.074 51.3359 133.723 51.4609C133.379 51.5781 133.09 51.7539 132.855 51.9883C132.629 52.2227 132.457 52.5078 132.34 52.8438C132.23 53.1797 132.168 53.5625 132.152 53.9922L131.473 53.7812C131.473 52.9609 131.555 52.207 131.719 51.5195C131.883 50.8242 132.121 50.2188 132.434 49.7031C132.754 49.1875 133.145 48.7891 133.605 48.5078C134.066 48.2266 134.594 48.0859 135.188 48.0859C135.375 48.0859 135.566 48.1016 135.762 48.1328C135.957 48.1562 136.117 48.1914 136.242 48.2383ZM143.438 61.2344C142.453 61.2344 141.57 61.0781 140.789 60.7656C140.008 60.4453 139.344 60.0039 138.797 59.4414C138.258 58.8789 137.844 58.2266 137.555 57.4844C137.266 56.7344 137.121 55.9375 137.121 55.0938V54.625C137.121 53.6641 137.258 52.7852 137.531 51.9883C137.805 51.1914 138.195 50.5 138.703 49.9141C139.219 49.3281 139.844 48.8789 140.578 48.5664C141.312 48.2461 142.141 48.0859 143.062 48.0859C143.961 48.0859 144.758 48.2344 145.453 48.5312C146.148 48.8281 146.73 49.25 147.199 49.7969C147.676 50.3438 148.035 51 148.277 51.7656C148.52 52.5234 148.641 53.3672 148.641 54.2969V55.7031H138.562V53.4531H145.324V53.1953C145.324 52.7266 145.238 52.3086 145.066 51.9414C144.902 51.5664 144.652 51.2695 144.316 51.0508C143.98 50.832 143.551 50.7227 143.027 50.7227C142.582 50.7227 142.199 50.8203 141.879 51.0156C141.559 51.2109 141.297 51.4844 141.094 51.8359C140.898 52.1875 140.75 52.6016 140.648 53.0781C140.555 53.5469 140.508 54.0625 140.508 54.625V55.0938C140.508 55.6016 140.578 56.0703 140.719 56.5C140.867 56.9297 141.074 57.3008 141.34 57.6133C141.613 57.9258 141.941 58.168 142.324 58.3398C142.715 58.5117 143.156 58.5977 143.648 58.5977C144.258 58.5977 144.824 58.4805 145.348 58.2461C145.879 58.0039 146.336 57.6406 146.719 57.1562L148.359 58.9375C148.094 59.3203 147.73 59.6875 147.27 60.0391C146.816 60.3906 146.27 60.6797 145.629 60.9062C144.988 61.125 144.258 61.2344 143.438 61.2344ZM156.398 61.2344C155.414 61.2344 154.531 61.0781 153.75 60.7656C152.969 60.4453 152.305 60.0039 151.758 59.4414C151.219 58.8789 150.805 58.2266 150.516 57.4844C150.227 56.7344 150.082 55.9375 150.082 55.0938V54.625C150.082 53.6641 150.219 52.7852 150.492 51.9883C150.766 51.1914 151.156 50.5 151.664 49.9141C152.18 49.3281 152.805 48.8789 153.539 48.5664C154.273 48.2461 155.102 48.0859 156.023 48.0859C156.922 48.0859 157.719 48.2344 158.414 48.5312C159.109 48.8281 159.691 49.25 160.16 49.7969C160.637 50.3438 160.996 51 161.238 51.7656C161.48 52.5234 161.602 53.3672 161.602 54.2969V55.7031H151.523V53.4531H158.285V53.1953C158.285 52.7266 158.199 52.3086 158.027 51.9414C157.863 51.5664 157.613 51.2695 157.277 51.0508C156.941 50.832 156.512 50.7227 155.988 50.7227C155.543 50.7227 155.16 50.8203 154.84 51.0156C154.52 51.2109 154.258 51.4844 154.055 51.8359C153.859 52.1875 153.711 52.6016 153.609 53.0781C153.516 53.5469 153.469 54.0625 153.469 54.625V55.0938C153.469 55.6016 153.539 56.0703 153.68 56.5C153.828 56.9297 154.035 57.3008 154.301 57.6133C154.574 57.9258 154.902 58.168 155.285 58.3398C155.676 58.5117 156.117 58.5977 156.609 58.5977C157.219 58.5977 157.785 58.4805 158.309 58.2461C158.84 58.0039 159.297 57.6406 159.68 57.1562L161.32 58.9375C161.055 59.3203 160.691 59.6875 160.23 60.0391C159.777 60.3906 159.23 60.6797 158.59 60.9062C157.949 61.125 157.219 61.2344 156.398 61.2344ZM166.828 51.0273V61H163.453V48.3203H166.617L166.828 51.0273ZM166.336 54.2148H165.422C165.422 53.2773 165.543 52.4336 165.785 51.6836C166.027 50.9258 166.367 50.2812 166.805 49.75C167.242 49.2109 167.762 48.8008 168.363 48.5195C168.973 48.2305 169.652 48.0859 170.402 48.0859C170.996 48.0859 171.539 48.1719 172.031 48.3438C172.523 48.5156 172.945 48.7891 173.297 49.1641C173.656 49.5391 173.93 50.0352 174.117 50.6523C174.312 51.2695 174.41 52.0234 174.41 52.9141V61H171.012V52.9023C171.012 52.3398 170.934 51.9023 170.777 51.5898C170.621 51.2773 170.391 51.0586 170.086 50.9336C169.789 50.8008 169.422 50.7344 168.984 50.7344C168.531 50.7344 168.137 50.8242 167.801 51.0039C167.473 51.1836 167.199 51.4336 166.98 51.7539C166.77 52.0664 166.609 52.4336 166.5 52.8555C166.391 53.2773 166.336 53.7305 166.336 54.2148ZM184.77 43.9375H187.746L192.129 56.4648L196.512 43.9375H199.488L193.324 61H190.934L184.77 43.9375ZM183.164 43.9375H186.129L186.668 56.1484V61H183.164V43.9375ZM198.129 43.9375H201.105V61H197.59V56.1484L198.129 43.9375ZM210.82 58.1406V52.4922C210.82 52.0859 210.754 51.7383 210.621 51.4492C210.488 51.1523 210.281 50.9219 210 50.7578C209.727 50.5938 209.371 50.5117 208.934 50.5117C208.559 50.5117 208.234 50.5781 207.961 50.7109C207.688 50.8359 207.477 51.0195 207.328 51.2617C207.18 51.4961 207.105 51.7734 207.105 52.0938H203.73C203.73 51.5547 203.855 51.043 204.105 50.5586C204.355 50.0742 204.719 49.6484 205.195 49.2812C205.672 48.9062 206.238 48.6133 206.895 48.4023C207.559 48.1914 208.301 48.0859 209.121 48.0859C210.105 48.0859 210.98 48.25 211.746 48.5781C212.512 48.9062 213.113 49.3984 213.551 50.0547C213.996 50.7109 214.219 51.5312 214.219 52.5156V57.9414C214.219 58.6367 214.262 59.207 214.348 59.6523C214.434 60.0898 214.559 60.4727 214.723 60.8008V61H211.312C211.148 60.6562 211.023 60.2266 210.938 59.7109C210.859 59.1875 210.82 58.6641 210.82 58.1406ZM211.266 53.2773L211.289 55.1875H209.402C208.957 55.1875 208.57 55.2383 208.242 55.3398C207.914 55.4414 207.645 55.5859 207.434 55.7734C207.223 55.9531 207.066 56.1641 206.965 56.4062C206.871 56.6484 206.824 56.9141 206.824 57.2031C206.824 57.4922 206.891 57.7539 207.023 57.9883C207.156 58.2148 207.348 58.3945 207.598 58.5273C207.848 58.6523 208.141 58.7148 208.477 58.7148C208.984 58.7148 209.426 58.6133 209.801 58.4102C210.176 58.207 210.465 57.957 210.668 57.6602C210.879 57.3633 210.988 57.082 210.996 56.8164L211.887 58.2461C211.762 58.5664 211.59 58.8984 211.371 59.2422C211.16 59.5859 210.891 59.9102 210.562 60.2148C210.234 60.5117 209.84 60.7578 209.379 60.9531C208.918 61.1406 208.371 61.2344 207.738 61.2344C206.934 61.2344 206.203 61.0742 205.547 60.7539C204.898 60.4258 204.383 59.9766 204 59.4062C203.625 58.8281 203.438 58.1719 203.438 57.4375C203.438 56.7734 203.562 56.1836 203.812 55.668C204.062 55.1523 204.43 54.7188 204.914 54.3672C205.406 54.0078 206.02 53.7383 206.754 53.5586C207.488 53.3711 208.34 53.2773 209.309 53.2773H211.266ZM220.195 51.0859V61H216.82V48.3203H219.996L220.195 51.0859ZM224.016 48.2383L223.957 51.3672C223.793 51.3438 223.594 51.3242 223.359 51.3086C223.133 51.2852 222.926 51.2734 222.738 51.2734C222.262 51.2734 221.848 51.3359 221.496 51.4609C221.152 51.5781 220.863 51.7539 220.629 51.9883C220.402 52.2227 220.23 52.5078 220.113 52.8438C220.004 53.1797 219.941 53.5625 219.926 53.9922L219.246 53.7812C219.246 52.9609 219.328 52.207 219.492 51.5195C219.656 50.8242 219.895 50.2188 220.207 49.7031C220.527 49.1875 220.918 48.7891 221.379 48.5078C221.84 48.2266 222.367 48.0859 222.961 48.0859C223.148 48.0859 223.34 48.1016 223.535 48.1328C223.73 48.1562 223.891 48.1914 224.016 48.2383ZM228.984 42.9883V61H225.609V42.9883H228.984ZM236.977 48.3203L231.469 54.6016L228.516 57.5898L227.285 55.1523L229.629 52.1758L232.922 48.3203H236.977ZM233.473 61L229.723 55.1406L232.055 53.1016L237.363 61H233.473ZM244.031 61.2344C243.047 61.2344 242.164 61.0781 241.383 60.7656C240.602 60.4453 239.938 60.0039 239.391 59.4414C238.852 58.8789 238.438 58.2266 238.148 57.4844C237.859 56.7344 237.715 55.9375 237.715 55.0938V54.625C237.715 53.6641 237.852 52.7852 238.125 51.9883C238.398 51.1914 238.789 50.5 239.297 49.9141C239.812 49.3281 240.438 48.8789 241.172 48.5664C241.906 48.2461 242.734 48.0859 243.656 48.0859C244.555 48.0859 245.352 48.2344 246.047 48.5312C246.742 48.8281 247.324 49.25 247.793 49.7969C248.27 50.3438 248.629 51 248.871 51.7656C249.113 52.5234 249.234 53.3672 249.234 54.2969V55.7031H239.156V53.4531H245.918V53.1953C245.918 52.7266 245.832 52.3086 245.66 51.9414C245.496 51.5664 245.246 51.2695 244.91 51.0508C244.574 50.832 244.145 50.7227 243.621 50.7227C243.176 50.7227 242.793 50.8203 242.473 51.0156C242.152 51.2109 241.891 51.4844 241.688 51.8359C241.492 52.1875 241.344 52.6016 241.242 53.0781C241.148 53.5469 241.102 54.0625 241.102 54.625V55.0938C241.102 55.6016 241.172 56.0703 241.312 56.5C241.461 56.9297 241.668 57.3008 241.934 57.6133C242.207 57.9258 242.535 58.168 242.918 58.3398C243.309 58.5117 243.75 58.5977 244.242 58.5977C244.852 58.5977 245.418 58.4805 245.941 58.2461C246.473 58.0039 246.93 57.6406 247.312 57.1562L248.953 58.9375C248.688 59.3203 248.324 59.6875 247.863 60.0391C247.41 60.3906 246.863 60.6797 246.223 60.9062C245.582 61.125 244.852 61.2344 244.031 61.2344ZM257.367 48.3203V50.7109H249.984V48.3203H257.367ZM251.812 45.1914H255.188V57.1797C255.188 57.5469 255.234 57.8281 255.328 58.0234C255.43 58.2188 255.578 58.3555 255.773 58.4336C255.969 58.5039 256.215 58.5391 256.512 58.5391C256.723 58.5391 256.91 58.5312 257.074 58.5156C257.246 58.4922 257.391 58.4688 257.508 58.4453L257.52 60.9297C257.23 61.0234 256.918 61.0977 256.582 61.1523C256.246 61.207 255.875 61.2344 255.469 61.2344C254.727 61.2344 254.078 61.1133 253.523 60.8711C252.977 60.6211 252.555 60.2227 252.258 59.6758C251.961 59.1289 251.812 58.4102 251.812 57.5195V45.1914Z" fill="#888888"/>
<path d="M112.125 84.875V119H103.898V84.875H112.125ZM122.391 84.875V91.2266H93.8672V84.875H122.391ZM135.68 119.469C133.617 119.469 131.773 119.148 130.148 118.508C128.523 117.852 127.148 116.953 126.023 115.812C124.914 114.672 124.062 113.359 123.469 111.875C122.891 110.391 122.602 108.82 122.602 107.164V106.273C122.602 104.414 122.859 102.695 123.375 101.117C123.891 99.5234 124.656 98.1328 125.672 96.9453C126.688 95.7578 127.961 94.8359 129.492 94.1797C131.023 93.5078 132.805 93.1719 134.836 93.1719C136.633 93.1719 138.242 93.4609 139.664 94.0391C141.086 94.6172 142.289 95.4453 143.273 96.5234C144.273 97.6016 145.031 98.9062 145.547 100.438C146.078 101.969 146.344 103.688 146.344 105.594V108.805H125.625V103.859H138.633V103.25C138.648 102.406 138.5 101.688 138.188 101.094C137.891 100.5 137.453 100.047 136.875 99.7344C136.297 99.4219 135.594 99.2656 134.766 99.2656C133.906 99.2656 133.195 99.4531 132.633 99.8281C132.086 100.203 131.656 100.719 131.344 101.375C131.047 102.016 130.836 102.758 130.711 103.602C130.586 104.445 130.523 105.336 130.523 106.273V107.164C130.523 108.102 130.648 108.953 130.898 109.719C131.164 110.484 131.539 111.141 132.023 111.688C132.523 112.219 133.117 112.633 133.805 112.93C134.508 113.227 135.305 113.375 136.195 113.375C137.273 113.375 138.336 113.172 139.383 112.766C140.43 112.359 141.328 111.688 142.078 110.75L145.664 115.016C145.148 115.75 144.414 116.461 143.461 117.148C142.523 117.836 141.398 118.398 140.086 118.836C138.773 119.258 137.305 119.469 135.68 119.469ZM160.266 113.375C161 113.375 161.625 113.242 162.141 112.977C162.672 112.695 163.07 112.305 163.336 111.805C163.617 111.289 163.75 110.672 163.734 109.953H171.164C171.18 111.859 170.711 113.531 169.758 114.969C168.82 116.391 167.539 117.5 165.914 118.297C164.305 119.078 162.484 119.469 160.453 119.469C158.469 119.469 156.734 119.148 155.25 118.508C153.766 117.852 152.523 116.945 151.523 115.789C150.539 114.617 149.797 113.25 149.297 111.688C148.812 110.125 148.57 108.43 148.57 106.602V106.062C148.57 104.234 148.812 102.539 149.297 100.977C149.797 99.3984 150.539 98.0312 151.523 96.875C152.523 95.7031 153.758 94.7969 155.227 94.1562C156.711 93.5 158.438 93.1719 160.406 93.1719C162.516 93.1719 164.375 93.5703 165.984 94.3672C167.609 95.1641 168.883 96.3203 169.805 97.8359C170.727 99.3516 171.18 101.188 171.164 103.344H163.734C163.75 102.578 163.633 101.891 163.383 101.281C163.133 100.672 162.742 100.188 162.211 99.8281C161.695 99.4531 161.031 99.2656 160.219 99.2656C159.406 99.2656 158.75 99.4453 158.25 99.8047C157.75 100.164 157.367 100.664 157.102 101.305C156.852 101.93 156.68 102.648 156.586 103.461C156.508 104.273 156.469 105.141 156.469 106.062V106.602C156.469 107.539 156.508 108.422 156.586 109.25C156.68 110.062 156.859 110.781 157.125 111.406C157.391 112.016 157.773 112.5 158.273 112.859C158.773 113.203 159.438 113.375 160.266 113.375ZM182.273 83V119H174.375V83H182.273ZM181.336 105.453L179.484 105.5C179.484 103.719 179.703 102.078 180.141 100.578C180.578 99.0781 181.203 97.7734 182.016 96.6641C182.828 95.5547 183.805 94.6953 184.945 94.0859C186.086 93.4766 187.352 93.1719 188.742 93.1719C189.992 93.1719 191.133 93.3516 192.164 93.7109C193.211 94.0703 194.109 94.6484 194.859 95.4453C195.625 96.2422 196.211 97.2812 196.617 98.5625C197.039 99.8438 197.25 101.406 197.25 103.25V119H189.305V103.203C189.305 102.172 189.156 101.375 188.859 100.812C188.578 100.234 188.172 99.8359 187.641 99.6172C187.109 99.3828 186.461 99.2656 185.695 99.2656C184.773 99.2656 184.023 99.4219 183.445 99.7344C182.867 100.047 182.422 100.484 182.109 101.047C181.812 101.594 181.609 102.242 181.5 102.992C181.391 103.742 181.336 104.562 181.336 105.453ZM231.539 109.93C231.539 109.398 231.461 108.922 231.305 108.5C231.148 108.062 230.859 107.656 230.438 107.281C230.016 106.906 229.406 106.531 228.609 106.156C227.828 105.766 226.797 105.359 225.516 104.938C224.016 104.438 222.57 103.875 221.18 103.25C219.789 102.609 218.547 101.867 217.453 101.023C216.359 100.164 215.492 99.1641 214.852 98.0234C214.211 96.8672 213.891 95.5234 213.891 93.9922C213.891 92.5234 214.219 91.2031 214.875 90.0312C215.531 88.8438 216.445 87.8359 217.617 87.0078C218.805 86.1641 220.195 85.5234 221.789 85.0859C223.383 84.6328 225.125 84.4062 227.016 84.4062C229.516 84.4062 231.719 84.8438 233.625 85.7188C235.547 86.5781 237.047 87.8047 238.125 89.3984C239.219 90.9766 239.766 92.8438 239.766 95H231.586C231.586 94.1406 231.406 93.3828 231.047 92.7266C230.703 92.0703 230.18 91.5547 229.477 91.1797C228.773 90.8047 227.891 90.6172 226.828 90.6172C225.797 90.6172 224.93 90.7734 224.227 91.0859C223.523 91.3984 222.992 91.8203 222.633 92.3516C222.273 92.8672 222.094 93.4375 222.094 94.0625C222.094 94.5781 222.234 95.0469 222.516 95.4688C222.812 95.875 223.227 96.2578 223.758 96.6172C224.305 96.9766 224.961 97.3203 225.727 97.6484C226.508 97.9766 227.383 98.2969 228.352 98.6094C230.164 99.1875 231.773 99.8359 233.18 100.555C234.602 101.258 235.797 102.062 236.766 102.969C237.75 103.859 238.492 104.875 238.992 106.016C239.508 107.156 239.766 108.445 239.766 109.883C239.766 111.414 239.469 112.773 238.875 113.961C238.281 115.148 237.43 116.156 236.32 116.984C235.211 117.797 233.883 118.414 232.336 118.836C230.789 119.258 229.062 119.469 227.156 119.469C225.406 119.469 223.68 119.25 221.977 118.812C220.289 118.359 218.758 117.672 217.383 116.75C216.008 115.812 214.906 114.617 214.078 113.164C213.266 111.695 212.859 109.953 212.859 107.938H221.109C221.109 108.938 221.242 109.781 221.508 110.469C221.773 111.156 222.164 111.711 222.68 112.133C223.195 112.539 223.828 112.836 224.578 113.023C225.328 113.195 226.188 113.281 227.156 113.281C228.203 113.281 229.047 113.133 229.688 112.836C230.328 112.523 230.797 112.117 231.094 111.617C231.391 111.102 231.539 110.539 231.539 109.93ZM256.992 93.6406V99.125H241.711V93.6406H256.992ZM244.922 87.3359H252.82V110.727C252.82 111.398 252.898 111.922 253.055 112.297C253.211 112.656 253.477 112.914 253.852 113.07C254.242 113.211 254.758 113.281 255.398 113.281C255.852 113.281 256.227 113.273 256.523 113.258C256.82 113.227 257.102 113.188 257.367 113.141V118.789C256.695 119.008 255.992 119.172 255.258 119.281C254.523 119.406 253.742 119.469 252.914 119.469C251.227 119.469 249.781 119.203 248.578 118.672C247.391 118.141 246.484 117.305 245.859 116.164C245.234 115.023 244.922 113.539 244.922 111.711V87.3359ZM273.305 112.625V102.172C273.305 101.453 273.203 100.836 273 100.32C272.797 99.8047 272.477 99.4062 272.039 99.125C271.602 98.8281 271.016 98.6797 270.281 98.6797C269.688 98.6797 269.18 98.7812 268.758 98.9844C268.336 99.1875 268.016 99.4922 267.797 99.8984C267.578 100.305 267.469 100.82 267.469 101.445H259.57C259.57 100.273 259.828 99.1875 260.344 98.1875C260.875 97.1719 261.625 96.2891 262.594 95.5391C263.578 94.7891 264.75 94.2109 266.109 93.8047C267.484 93.3828 269.016 93.1719 270.703 93.1719C272.719 93.1719 274.516 93.5078 276.094 94.1797C277.688 94.8516 278.945 95.8594 279.867 97.2031C280.789 98.5312 281.25 100.203 281.25 102.219V112.602C281.25 114.258 281.344 115.516 281.531 116.375C281.719 117.219 281.984 117.961 282.328 118.602V119H274.406C274.031 118.219 273.75 117.266 273.562 116.141C273.391 115 273.305 113.828 273.305 112.625ZM274.266 103.508L274.312 107.727H270.82C270.086 107.727 269.461 107.828 268.945 108.031C268.445 108.234 268.039 108.516 267.727 108.875C267.43 109.219 267.211 109.609 267.07 110.047C266.945 110.484 266.883 110.945 266.883 111.43C266.883 111.898 266.992 112.32 267.211 112.695C267.445 113.055 267.758 113.336 268.148 113.539C268.539 113.742 268.977 113.844 269.461 113.844C270.336 113.844 271.078 113.68 271.688 113.352C272.312 113.008 272.789 112.594 273.117 112.109C273.445 111.625 273.609 111.172 273.609 110.75L275.344 113.984C275.031 114.609 274.672 115.242 274.266 115.883C273.875 116.523 273.383 117.117 272.789 117.664C272.211 118.195 271.5 118.633 270.656 118.977C269.812 119.305 268.789 119.469 267.586 119.469C266.023 119.469 264.586 119.148 263.273 118.508C261.977 117.867 260.938 116.977 260.156 115.836C259.375 114.68 258.984 113.352 258.984 111.852C258.984 110.539 259.219 109.367 259.688 108.336C260.172 107.305 260.898 106.43 261.867 105.711C262.836 104.992 264.07 104.445 265.57 104.07C267.07 103.695 268.836 103.508 270.867 103.508H274.266ZM296.344 113.375C297.078 113.375 297.703 113.242 298.219 112.977C298.75 112.695 299.148 112.305 299.414 111.805C299.695 111.289 299.828 110.672 299.812 109.953H307.242C307.258 111.859 306.789 113.531 305.836 114.969C304.898 116.391 303.617 117.5 301.992 118.297C300.383 119.078 298.562 119.469 296.531 119.469C294.547 119.469 292.812 119.148 291.328 118.508C289.844 117.852 288.602 116.945 287.602 115.789C286.617 114.617 285.875 113.25 285.375 111.688C284.891 110.125 284.648 108.43 284.648 106.602V106.062C284.648 104.234 284.891 102.539 285.375 100.977C285.875 99.3984 286.617 98.0312 287.602 96.875C288.602 95.7031 289.836 94.7969 291.305 94.1562C292.789 93.5 294.516 93.1719 296.484 93.1719C298.594 93.1719 300.453 93.5703 302.062 94.3672C303.688 95.1641 304.961 96.3203 305.883 97.8359C306.805 99.3516 307.258 101.188 307.242 103.344H299.812C299.828 102.578 299.711 101.891 299.461 101.281C299.211 100.672 298.82 100.188 298.289 99.8281C297.773 99.4531 297.109 99.2656 296.297 99.2656C295.484 99.2656 294.828 99.4453 294.328 99.8047C293.828 100.164 293.445 100.664 293.18 101.305C292.93 101.93 292.758 102.648 292.664 103.461C292.586 104.273 292.547 105.141 292.547 106.062V106.602C292.547 107.539 292.586 108.422 292.664 109.25C292.758 110.062 292.938 110.781 293.203 111.406C293.469 112.016 293.852 112.5 294.352 112.859C294.852 113.203 295.516 113.375 296.344 113.375ZM318.586 82.9766V119H310.688V82.9766H318.586ZM334.805 93.6406L323.789 106.555L318.023 112.32L314.578 107.305L319.383 101.047L325.336 93.6406H334.805ZM326.344 119L319.57 107.445L325.406 103.297L335.391 119H326.344Z" fill="black"/>
<path d="M1134 0H1348C1356.28 0 1363 6.71573 1363 15V148C1363 156.284 1356.28 163 1348 163H1134V0Z" fill="#34BB78"/>
<path fill-rule="evenodd" clip-rule="evenodd" d="M1218.75 53C1218.62 53 1218.49 53.0527 1218.4 53.1464C1218.3 53.2402 1218.25 53.3674 1218.25 53.5V109.5C1218.25 109.633 1218.3 109.76 1218.4 109.854C1218.49 109.947 1218.62 110 1218.75 110H1278.25C1278.38 110 1278.51 109.947 1278.6 109.854C1278.7 109.76 1278.75 109.633 1278.75 109.5V64C1278.75 63.8674 1278.7 63.7402 1278.6 63.6464C1278.51 63.5527 1278.38 63.5 1278.25 63.5H1248.5C1247.61 63.5 1246.77 63.1045 1246.2 62.4206L1238.34 53H1218.75ZM1214.15 48.9038C1215.37 47.6848 1217.03 47 1218.75 47H1239.75C1240.64 47 1241.48 47.3955 1242.05 48.0794L1249.91 57.5H1278.25C1279.97 57.5 1281.63 58.1848 1282.85 59.4038C1284.07 60.6228 1284.75 62.2761 1284.75 64V109.5C1284.75 111.224 1284.07 112.877 1282.85 114.096C1281.63 115.315 1279.97 116 1278.25 116H1218.75C1217.03 116 1215.37 115.315 1214.15 114.096C1212.93 112.877 1212.25 111.224 1212.25 109.5V53.5C1212.25 51.7761 1212.93 50.1228 1214.15 48.9038Z" fill="white"/>
<path fill-rule="evenodd" clip-rule="evenodd" d="M1243.97 75.5251C1245.34 76.892 1245.34 79.108 1243.97 80.4749L1237.7 86.75L1243.97 93.0251C1245.34 94.392 1245.34 96.608 1243.97 97.9749C1242.61 99.3417 1240.39 99.3417 1239.03 97.9749L1230.28 89.2249C1228.91 87.858 1228.91 85.642 1230.28 84.2751L1239.03 75.5251C1240.39 74.1583 1242.61 74.1583 1243.97 75.5251Z" fill="white"/>
<path fill-rule="evenodd" clip-rule="evenodd" d="M1252.28 97.9749C1250.91 96.608 1250.91 94.392 1252.28 93.0251L1258.55 86.75L1252.28 80.4749C1250.91 79.108 1250.91 76.892 1252.28 75.5251C1253.64 74.1583 1255.86 74.1583 1257.22 75.5251L1265.97 84.2751C1267.34 85.642 1267.34 87.858 1265.97 89.2249L1257.22 97.9749C1255.86 99.3417 1253.64 99.3417 1252.28 97.9749Z" fill="white"/>
</svg>
